HIERARCHY
ROOT Hips
{
    OFFSET 0.000000 0.000000 0.000000
    CHANNELS 6 Xposition Yposition Zposition Zrotation Xrotation Yrotation
        JOINT Chest
        {
            OFFSET -0.000000 28.502190 -0.000000
            CHANNELS 3 Zrotation Xrotation Yrotation
            JOINT Neck
            {
                OFFSET -0.000000 21.060717 0.000000
                CHANNELS 3 Zrotation Xrotation Yrotation
                JOINT Head
                {
                    OFFSET -0.000000 9.900002 0.000000
                    CHANNELS 3 Zrotation Xrotation Yrotation
                    End Site
                    {
                        OFFSET -0.000000 15.300010 0.000000
                    }
                }
            }
            JOINT LeftCollar
            {
                OFFSET -0.000000 21.060717 0.000000
                CHANNELS 3 Zrotation Xrotation Yrotation
                JOINT LeftShoulder
                {
                    OFFSET 18.000004 -0.000000 0.000000
                    CHANNELS 3 Zrotation Xrotation Yrotation
                    JOINT LeftElbow
                    {
                        OFFSET 21.585543 0.000000 0.000000
                        CHANNELS 3 Zrotation Xrotation Yrotation
                        JOINT LeftWrist
                        {
                            OFFSET 21.310946 0.000000 0.000000
                            CHANNELS 3 Zrotation Xrotation Yrotation
                            End Site
                            {
                                OFFSET 0.000000 -13.500002 0.000000
                            }
                        }
                    }
                }
            }
            JOINT RightCollar
            {
                OFFSET -0.000000 21.060717 0.000000
                CHANNELS 3 Zrotation Xrotation Yrotation
                JOINT RightShoulder
                {
                    OFFSET -18.000004 0.000000 0.000000
                    CHANNELS 3 Zrotation Xrotation Yrotation
                    JOINT RightElbow
                    {
                        OFFSET -21.585543 0.000000 0.000000
                        CHANNELS 3 Zrotation Xrotation Yrotation
                        JOINT RightWrist
                        {
                            OFFSET -21.310946 0.000000 0.000000
                            CHANNELS 3 Zrotation Xrotation Yrotation
                            End Site
                            {
                                OFFSET -0.000000 -13.500002 0.000000
                            }
                        }
                    }
                }
            }
        }
    JOINT LeftHip
    {
        OFFSET 10.800001 0.000000 0.000000
        CHANNELS 3 Zrotation Xrotation Yrotation
        JOINT LeftKnee
        {
            OFFSET -0.000000 -36.918850 0.000000
            CHANNELS 3 Zrotation Xrotation Yrotation
            JOINT LeftAnkle
            {
                OFFSET -0.000000 -34.060452 0.000000
                CHANNELS 3 Zrotation Xrotation Yrotation
                End Site
                {
                    OFFSET -0.000000 -4.500001 15.300010
                }
            }
        }
    }
    JOINT RightHip
    {
        OFFSET -10.800001 0.000000 0.000000
        CHANNELS 3 Zrotation Xrotation Yrotation
        JOINT RightKnee
        {
            OFFSET -0.000000 -36.918850 0.000000
            CHANNELS 3 Zrotation Xrotation Yrotation
            JOINT RightAnkle
            {
                OFFSET -0.000000 -34.060452 0.000000
                CHANNELS 3 Zrotation Xrotation Yrotation
                End Site
                {
                    OFFSET -0.000000 -4.500001 15.300010
                }
            }
        }
    }
}
MOTION
Frames:    9
Frame Time:    0.010000
82.628975    79.102516    -36.035965    0.498070    -3.062253    -85.927704    -3.961148    4.878171    -8.125998    10.226952    11.155327    23.087648    -14.152739    -29.553020    20.378534    -8.170729    0.464269    -8.181535    -2.204540    -0.663804    -41.382103    34.527317    -13.475056    -39.591816    136.621002    5.739587    12.557208    7.565049    -1.555185    -22.577242    30.174988    35.284290    1.811364    -16.046022    -13.446880    80.189285    -85.515633    10.228090    -54.534325    2.214070    -26.797596    -3.042775    -14.083551    53.456287    20.429604    -12.968470    -3.097383    3.496452    -1.725804    -8.959003    -1.139306    -7.422487    24.288897    8.358856    1.190589    -19.117737    7.066176    
82.641716    79.101242    -35.866814    0.593870    -3.078708    -85.908653    -3.527081    4.777901    -9.178990    9.640253    11.147894    23.586143    -13.649424    -29.921610    20.905384    -6.838346    0.381178    -8.109294    -0.274771    -2.084592    -40.812130    34.279354    -12.423530    -36.946739    137.677856    4.524709    12.289916    7.731828    -1.555869    -21.967724    29.310946    33.892647    0.452601    -15.968129    -13.473379    80.471184    -86.730995    11.285361    -54.101196    2.740316    -27.333941    -3.093610    -14.679052    54.122631    20.018789    -14.029852    -2.579204    2.471349    -1.891704    -8.820812    -0.493193    -7.094662    24.064724    8.300570    0.829706    -19.413202    6.415073    
82.652702    79.088646    -35.691586    0.704339    -3.051156    -85.885368    -2.971189    4.572196    -10.292062    9.007970    11.301113    24.091791    -13.178790    -30.337725    21.436192    -5.634014    0.305438    -7.907511    1.713324    -3.263567    -40.156925    33.738632    -11.300607    -34.350834    138.586441    3.393994    11.908645    7.900515    -1.545943    -21.248585    28.507057    32.543900    -0.968032    -15.935349    -13.551394    80.654175    -88.092377    12.274194    -53.545277    3.328961    -27.895216    -3.062743    -15.206080    54.791077    19.498423    -14.997433    -2.103376    1.444144    -2.024992    -8.703506    0.108031    -6.779942    23.834953    8.219844    0.460040    -19.686525    5.822195    
82.658836    79.070641    -35.508961    0.833811    -2.980935    -85.860039    -2.303363    4.255677    -11.421725    8.368810    11.619055    24.591761    -12.774362    -30.789049    21.951750    -4.566929    0.242238    -7.623378    3.768119    -4.186900    -39.455479    32.928909    -10.148223    -31.804682    139.245026    2.330571    11.377026    8.064957    -1.523848    -20.429184    27.785465    31.208567    -2.467451    -15.997207    -13.644759    80.731255    -89.551819    13.142039    -52.829235    3.967639    -28.463068    -2.945699    -15.603406    55.435074    18.814009    -15.843526    -1.706388    0.433137    -2.127922    -8.607678    0.642004    -6.487275    23.588747    8.126408    0.104561    -19.931095    5.295989    
82.656502    79.052803    -35.317730    0.983599    -2.871048    -85.838417    -1.541395    3.834659    -12.521398    7.763217    12.090494    25.073519    -12.464798    -31.255726    22.434490    -3.633176    0.186040    -7.308636    5.882304    -4.848072    -38.741833    31.890736    -9.003798    -29.306034    139.542023    1.317623    10.682223    8.220251    -1.496094    -19.528997    27.159187    29.866135    -4.040482    -16.099060    -13.759735    80.719643    -91.207359    13.909914    -51.957718    4.645094    -29.014683    -2.740708    -15.815401    56.026348    17.924706    -16.541550    -1.435562    -0.529118    -2.204780    -8.531614    1.095608    -6.220435    23.320765    8.036018    -0.220705    -20.147686    4.831693    
82.641998    79.039795    -35.116714    1.151928    -2.726392    -85.829124    -0.709986    3.325047    -13.548144    7.226955    12.691819    25.525221    -12.268921    -31.714581    22.868784    -2.816967    0.136217    -7.016854    8.027542    -5.270385    -38.035454    30.653088    -7.891533    -26.871592    139.380173    0.332201    9.822963    8.369797    -1.451815    -18.574209    26.618914    28.484241    -5.659607    -16.212431    -13.857627    80.639473    -93.069740    14.588334    -50.869328    5.351112    -29.524904    -2.451081    -15.800221    56.535038    16.817883    -17.068165    -1.342658    -1.394103    -2.262634    -8.470708    1.467736    -5.975813    23.029375    7.965790    -0.508347    -20.340918    4.413958    
82.612091    79.034958    -34.904655    1.334707    -2.553838    -85.842575    0.161629    2.748182    -14.468187    6.784507    13.394585    25.937437    -12.193096    -32.148113    23.244535    -2.100645    0.083984    -6.792936    10.172269    -5.486699    -37.346790    29.259743    -6.836548    -24.512833    138.683945    -0.637070    8.818443    8.509706    -1.399881    -17.593132    26.166672    27.060698    -7.290357    -16.342546    -13.956681    80.487930    -95.135162    15.169003    -49.553844    6.076058    -29.968344    -2.086820    -15.536160    56.928169    15.523146    -17.410719    -1.470745    -2.104181    -2.311002    -8.418533    1.765359    -5.745744    22.715450    7.933262    -0.754536    -20.515957    4.024422    
82.564377    79.040039    -34.680103    1.526807    -2.362022    -85.889771    1.043040    2.127473    -15.259904    6.440977    14.167452    26.305807    -12.223178    -32.548283    23.560423    -1.462827    0.053280    -6.663560    12.288548    -5.564111    -36.678230    27.710920    -5.851568    -22.280710    137.437393    -1.573834    7.678399    8.636168    -1.343937    -16.612541    25.799160    25.595703    -8.897620    -16.494221    -14.048615    80.258163    -97.393669    15.616494    -48.063187    6.810572    -30.321938    -1.665310    -15.027749    57.169903    14.120034    -17.572487    -1.842240    -2.602338    -2.360511    -8.367804    1.997639    -5.523843    22.379288    7.952960    -0.953409    -20.676161    3.653335    
82.497299    79.055267    -34.441479    1.723084    -2.160525    -85.981316    1.905570    1.485188    -15.914243    6.184015    14.978440    26.632208    -12.326716    -32.914661    23.824938    -0.886974    0.034936    -6.634555    14.362426    -5.533484    -36.040726    26.085180    -4.960525    -20.166904    135.640671    -2.424937    6.470229    8.744720    -1.280959    -15.651507    25.516668    24.087744    -10.446953    -16.664902    -14.136109    79.942261    -99.809349    15.882742    -46.480793    7.546345    -30.566868    -1.208632    -14.306623    57.224575    12.729395    -17.566051    -2.454317    -2.842591    -2.421079    -8.311105    2.174402    -5.307632    22.018713    8.031262    -1.097022    -20.821798    3.305812    
